PathFileType	4	(X/Y/Z)	./resultDataOpenSim/trcMotMarkerGrf/sub09/qtm-03-06.trc
DataRate	CameraRate	NumFrames	NumMarkers	Units	OrigDataRate	OrigDataStartFrame	OrigNumFrames
250.000000	250.000000	14	24	m	250.000000	124	492
Frame#	Time	L.Toe.Tip			R.Toe.Tip			L.Ankle.Lat			R.Ankle.Lat			L.Ankle.Med			R.Ankle.Med			L.Heel			R.Heel			L.Knee.Lat			R.Knee.Lat			L.Knee.Med			R.Knee.Med			L.Thigh.Upper			R.Thigh.Upper			L.ASIS			R.ASIS			V.Sacral			L.Acromium			R.Acromium			C7			L.Elbow			R.Elbow			L.Wrist.Lat			R.Wrist.Lat
		X1	Y1	Z1	X2	Y2	Z2	X3	Y3	Z3	X4	Y4	Z4	X5	Y5	Z5	X6	Y6	Z6	X7	Y7	Z7	X8	Y8	Z8	X9	Y9	Z9	X10	Y10	Z10	X11	Y11	Z11	X12	Y12	Z12	X13	Y13	Z13	X14	Y14	Z14	X15	Y15	Z15	X16	Y16	Z16	X17	Y17	Z17	X18	Y18	Z18	X19	Y19	Z19	X20	Y20	Z20	X21	Y21	Z21	X22	Y22	Z22	X23	Y23	Z23	X24	Y24	Z24

124	0.492	-0.3076829	0.092924193	0.053601633	-0.70611658	0.046651799	0.16534356	-0.4607254	0.10300402	0.033284325	-0.85661522	0.060409878	0.18789777	-0.42979257	0.12639306	0.12421531	-0.83618322	0.10397123	0.10309812	-0.51838849	0.055163568	0.091123869	-0.91936542	0.040097288	0.12916256	-0.46429001	0.52039309	-0.011174704	-0.73971786	0.50592211	0.26409092	-0.45923857	0.51879814	0.11371907	-0.73807283	0.49444762	0.1370661	-0.65303462	0.89635969	-0.05496445	-0.70142462	0.91214336	0.31346786	-0.58491371	0.98168238	0.011385011	-0.59134244	0.98754518	0.2510993	-0.7521134	1.0440282	0.12129056	-0.57756457	1.4401336	-0.027033766	-0.60432155	1.443403	0.30199106	-0.66055657	1.4917978	0.13747501	-0.74251577	1.1130343	-0.083945069	-0.73675478	1.0948819	0.37646029	-0.63948971	0.87300765	-0.12702239	-0.53994019	0.89688597	0.36515873
125	0.496	-0.29011238	0.094231895	0.055060063	-0.70621822	0.046549376	0.16538011	-0.44354062	0.10157334	0.034614492	-0.85661935	0.060637128	0.18738089	-0.41316587	0.1260241	0.1256047	-0.83585341	0.10398039	0.10266942	-0.50026392	0.053051072	0.092791855	-0.91924763	0.040206374	0.12848439	-0.45794282	0.51803576	-0.010348817	-0.7371239	0.50613109	0.26448172	-0.45277505	0.51741824	0.11430907	-0.73654802	0.49428706	0.13697363	-0.64680239	0.89491474	-0.054538905	-0.69627407	0.91146507	0.31357795	-0.57870872	0.98033742	0.011848468	-0.58564584	0.98654283	0.251581	-0.74609074	1.0427003	0.12128328	-0.57187774	1.4390038	-0.026982247	-0.59881955	1.4423323	0.30204308	-0.65491724	1.4906477	0.13749152	-0.73758627	1.1124751	-0.083976915	-0.73081587	1.0934942	0.376677	-0.63628546	0.87193879	-0.12765279	-0.5326504	0.89675584	0.36520197
126	0.5	-0.27272262	0.095536321	0.056726485	-0.70632051	0.046435212	0.16534643	-0.42651343	0.10039911	0.035938269	-0.85679188	0.060806396	0.18672037	-0.39673065	0.12583327	0.12703437	-0.83552852	0.10396313	0.10214746	-0.48217923	0.051092552	0.094061949	-0.91909565	0.040336974	0.12773609	-0.45180971	0.51583335	-0.0097293564	-0.73443636	0.50619929	0.26480137	-0.44636628	0.51590411	0.11495284	-0.73484907	0.49412102	0.13700063	-0.64060507	0.89336247	-0.054081932	-0.69114201	0.91071599	0.31369762	-0.57244781	0.97890045	0.012317995	-0.57996796	0.9854804	0.25208795	-0.74005388	1.0412978	0.12127287	-0.56617314	1.4377847	-0.026937908	-0.59335164	1.4411934	0.30210579	-0.64926818	1.4894161	0.13750418	-0.73269882	1.1118399	-0.083932633	-0.72487632	1.0920239	0.37686872	-0.63305446	0.87080099	-0.12829177	-0.52539609	0.89654796	0.3652552
127	0.504	-0.25554355	0.096836925	0.058585079	-0.70639583	0.046319155	0.16531165	-0.40968559	0.099455938	0.037253187	-0.85700525	0.060931928	0.18603081	-0.38050485	0.12578023	0.12841948	-0.83518295	0.10393489	0.10158674	-0.46427218	0.049347348	0.095142059	-0.91891516	0.040490575	0.12692501	-0.44582906	0.51379261	-0.0093088728	-0.73192029	0.50612484	0.265014	-0.44021294	0.51418765	0.11555406	-0.73297203	0.49393385	0.13710462	-0.63448562	0.89168743	-0.053601077	-0.68601744	0.90988243	0.31381993	-0.56614001	0.97738286	0.012803558	-0.57431388	0.98435168	0.25262713	-0.73399911	1.0398187	0.12125391	-0.56043541	1.4364688	-0.026888741	-0.58791097	1.4399824	0.30219097	-0.64362149	1.4881123	0.13751562	-0.72779675	1.1111183	-0.083882719	-0.71893597	1.0904721	0.37703995	-0.62982231	0.86958159	-0.12893852	-0.51818401	0.89626416	0.36532925
128	0.508	-0.23861107	0.098134824	0.060582019	-0.70644419	0.046192676	0.1653076	-0.39310592	0.098680986	0.038558468	-0.85714374	0.061055627	0.18537946	-0.36451193	0.12585252	0.12969349	-0.83477145	0.10392921	0.10106941	-0.44669962	0.047898455	0.09627864	-0.91871238	0.040668271	0.12605893	-0.43990847	0.5118005	-0.0089538747	-0.72962902	0.50595366	0.26514634	-0.43436459	0.51225639	0.11609812	-0.73091128	0.49370958	0.13725658	-0.62837135	0.88989632	-0.053087495	-0.68089041	0.90895295	0.31393522	-0.5598002	0.97579065	0.013311506	-0.56866982	0.98315713	0.25319547	-0.72792285	1.038256	0.12122454	-0.55467517	1.4350648	-0.0268303	-0.58248114	1.438695	0.30229418	-0.63797673	1.4867385	0.13751807	-0.72284231	1.1103043	-0.083870149	-0.71299577	1.0888441	0.37719505	-0.62660545	0.86827474	-0.1296038	-0.51102683	0.89590034	0.36543753
129	0.512	-0.22195604	0.09943606	0.062648438	-0.70647752	0.046048638	0.16532237	-0.37682764	0.098029832	0.039829041	-0.85719218	0.061201922	0.18475783	-0.34878293	0.12605006	0.13084788	-0.83428096	0.1039627	0.10061748	-0.42949982	0.046732909	0.097481515	-0.91849251	0.040869652	0.12515025	-0.4340305	0.50975068	-0.0085267756	-0.72745182	0.50570088	0.2652368	-0.42869229	0.51015981	0.11665334	-0.72870714	0.49342702	0.13742796	-0.62215887	0.88800746	-0.052540639	-0.67575076	0.90792598	0.31403221	-0.55344025	0.97412588	0.013837916	-0.56302664	0.98189936	0.25377998	-0.72182453	1.0366137	0.12119459	-0.54890659	1.4335842	-0.026772065	-0.5770575	1.4373315	0.30240279	-0.63232107	1.4852951	0.13750215	-0.71782334	1.1093965	-0.083906007	-0.70705943	1.0871499	0.3773372	-0.62338178	0.8668868	-0.13028655	-0.5039287	0.89544934	0.36557824
130	0.516	-0.20559849	0.10074145	0.064734865	-0.70650066	0.045884246	0.16533367	-0.36087736	0.097498353	0.041021676	-0.85718606	0.061374683	0.18415117	-0.33335757	0.12636025	0.13190034	-0.83374525	0.10401846	0.10018632	-0.41265691	0.045793295	0.098641365	-0.91825842	0.04109121	0.12422032	-0.42822248	0.50760399	-0.0079835406	-0.72526214	0.50536114	0.26531338	-0.42304163	0.50795279	0.11727795	-0.72642141	0.49307409	0.13757584	-0.6158009	0.88603468	-0.051975473	-0.67059763	0.90681444	0.31410615	-0.54706752	0.97239103	0.01437209	-0.5573979	0.98057768	0.25436591	-0.7157118	1.034901	0.12118006	-0.54313244	1.4320309	-0.026720943	-0.57164214	1.4359017	0.3025102	-0.62664467	1.4837867	0.13747141	-0.71274483	1.1083969	-0.083982508	-0.70112852	1.0853984	0.37746742	-0.62011998	0.865428	-0.13097405	-0.496882	0.8949092	0.36574152
131	0.52	-0.18955396	0.10204136	0.066827631	-0.70651075	0.045696423	0.16532315	-0.34524163	0.097103113	0.042094247	-0.85715492	0.061568792	0.1835637	-0.31827217	0.12675023	0.13286093	-0.83320564	0.10406663	0.099729292	-0.3961713	0.045043032	0.099665256	-0.91801177	0.041324797	0.12329791	-0.42246155	0.50539059	-0.0073896501	-0.72297472	0.50493762	0.26538618	-0.4173197	0.50567217	0.11799034	-0.72402816	0.49266924	0.13769496	-0.60934723	0.88397749	-0.051413557	-0.6654453	0.90563499	0.31416479	-0.54068643	0.97058871	0.014903713	-0.55179265	0.97919095	0.2549448	-0.70960703	1.0331189	0.12119369	-0.53734984	1.4304052	-0.026672699	-0.56622255	1.4344156	0.30261341	-0.6209592	1.4822126	0.13743672	-0.70761928	1.1073087	-0.084085662	-0.69519482	1.0835908	0.37758011	-0.61680544	0.86390502	-0.13165438	-0.48987643	0.89428782	0.36592286
132	0.524	-0.17384525	0.10333196	0.068934221	-0.70650665	0.045481893	0.165278	-0.32989782	0.096857644	0.043016958	-0.85710831	0.06177334	0.18299987	-0.30355259	0.12717095	0.13372839	-0.83268251	0.10408886	0.099236283	-0.38006424	0.044461037	0.10049234	-0.91775678	0.041562797	0.12241262	-0.41665809	0.5031565	-0.0068179292	-0.72054232	0.50444489	0.26545937	-0.41149924	0.50334738	0.11879019	-0.72144143	0.49223728	0.13781858	-0.60289799	0.88183048	-0.050874715	-0.66030635	0.90439588	0.3142205	-0.53429653	0.96872122	0.015422095	-0.54619524	0.9777405	0.25551215	-0.70352478	1.031269	0.12122734	-0.53156027	1.4287106	-0.026627228	-0.56078376	1.4328754	0.30270709	-0.6152895	1.4805764	0.1374102	-0.70246202	1.1061362	-0.084200636	-0.6892501	1.0817242	0.37766841	-0.61344322	0.86232	-0.13232662	-0.48290815	0.89359368	0.36612091
133	0.528	-0.15850801	0.10463738	0.071060942	-0.70649383	0.045242084	0.16519079	-0.31485071	0.096756472	0.043787253	-0.8570436	0.061975616	0.18245703	-0.28922245	0.1275745	0.13450185	-0.8321826	0.1040834	0.098724021	-0.36436351	0.044014482	0.10108479	-0.91750135	0.041806769	0.12158814	-0.41073173	0.50090629	-0.0062384611	-0.71795489	0.50389434	0.2655331	-0.40559972	0.50100531	0.11967059	-0.71863014	0.49177282	0.13795894	-0.59650957	0.87960055	-0.050372926	-0.65517466	0.9030971	0.31427566	-0.52788832	0.96679376	0.015915071	-0.54059249	0.97622857	0.25606696	-0.69742743	1.0293504	0.12122405	-0.5257691	1.4269523	-0.026595286	-0.55533034	1.4312833	0.30278881	-0.60965245	1.4789063	0.1374121	-0.69729032	1.1048849	-0.084314579	-0.68329597	1.0798007	0.37773145	-0.61004869	0.86067197	-0.13300228	-0.47598121	0.89282295	0.366333
134	0.532	-0.14358279	0.10601152	0.073205669	-0.70647807	0.044984336	0.16505955	-0.30013732	0.096776824	0.04442931	-0.85695434	0.062167973	0.18193763	-0.27531562	0.1279398	0.13519622	-0.83170601	0.10405708	0.098211475	-0.3490912	0.043651696	0.10142635	-0.91725442	0.042067552	0.12083607	-0.40467627	0.49862371	-0.0055628883	-0.71523109	0.5032747	0.26559447	-0.39965963	0.49866532	0.12062052	-0.71564394	0.49123788	0.13808194	-0.59016861	0.87730652	-0.049911103	-0.65003313	0.90173669	0.31432279	-0.5214462	0.96481657	0.01637489	-0.53498883	0.97465323	0.25660867	-0.69124122	1.0273475	0.12109782	-0.51997541	1.4251344	-0.026582092	-0.54986689	1.4296427	0.30286249	-0.60404973	1.4772284	0.13746162	-0.69211405	1.1035593	-0.08442296	-0.6773391	1.0778277	0.37777094	-0.60662672	0.85895922	-0.1336929	-0.46909766	0.89196484	0.36655943
135	0.536	-0.12910719	0.1075165	0.075360388	-0.70645795	0.044716565	0.16488879	-0.28580098	0.096894446	0.044971984	-0.85683497	0.062350676	0.18145272	-0.26187636	0.12826711	0.13584662	-0.83124774	0.10401896	0.097712449	-0.33426112	0.043311839	0.10152397	-0.91702423	0.042358548	0.12015515	-0.3985382	0.49634139	-0.0047833109	-0.71237909	0.50254622	0.26562892	-0.39371716	0.49633204	0.12162474	-0.71255709	0.49058811	0.13813961	-0.58383156	0.87496503	-0.049484041	-0.6448666	0.9003146	0.31435302	-0.51495675	0.96280023	0.016801657	-0.52939191	0.97300859	0.25713097	-0.68495859	1.0252624	0.12082933	-0.51416896	1.4232622	-0.026581676	-0.54438271	1.4279547	0.3029331	-0.59846209	1.4755305	0.13754633	-0.68690139	1.1021604	-0.084541338	-0.67138455	1.0758149	0.37778731	-0.60315332	0.85718781	-0.13439442	-0.46225032	0.8910185	0.36680255
136	0.54	-0.11512477	0.10918908	0.077509544	-0.70642833	0.044443767	0.1646879	-0.27186282	0.097091878	0.045439935	-0.85668583	0.062529385	0.18101054	-0.24894676	0.12854229	0.13649445	-0.83080741	0.10398002	0.097240843	-0.31988211	0.042937458	0.10139889	-0.9168196	0.042690166	0.11954427	-0.39235267	0.49412993	-0.0039899834	-0.70935192	0.50166319	0.26563173	-0.38781054	0.49399521	0.12266318	-0.70940072	0.48980807	0.13812191	-0.57744832	0.87258305	-0.049092203	-0.63966086	0.8988313	0.31435724	-0.5084177	0.96074935	0.017201883	-0.52380618	0.97129378	0.25762915	-0.67867928	1.0231259	0.12050858	-0.50833986	1.4213413	-0.026591453	-0.53887736	1.4262213	0.30300181	-0.59283633	1.4737761	0.13759951	-0.68156695	1.1006861	-0.084702431	-0.66543284	1.0737687	0.37778119	-0.59958468	0.85537775	-0.13509007	-0.45543169	0.88999321	0.36705815
137	0.544	-0.10168495	0.11101226	0.079624582	-0.70638856	0.044168542	0.16446575	-0.25831915	0.097354398	0.045862015	-0.8565126	0.062709669	0.18061298	-0.23655067	0.12873084	0.13717207	-0.83038881	0.10395168	0.096805643	-0.30595983	0.042489158	0.10107553	-0.91664842	0.043065309	0.11901267	-0.38612755	0.49201901	-0.003256236	-0.70605595	0.50060328	0.26559983	-0.3819775	0.49164087	0.12371779	-0.70615052	0.48891702	0.13806703	-0.57097116	0.87016211	-0.048740246	-0.63440374	0.89728539	0.31433099	-0.50184367	0.95866221	0.017586053	-0.51822627	0.96951758	0.2581074	-0.67249773	1.0209486	0.12023032	-0.50248385	1.4193736	-0.026616554	-0.53336682	1.4244458	0.30306617	-0.58710384	1.4719365	0.13753044	-0.67606298	1.0991373	-0.084918001	-0.65947899	1.0716892	0.3777534	-0.5958886	0.85355119	-0.13576285	-0.44864368	0.88889575	0.36731838
